<svg id="Capa_1" enable-background="new 0 0 512 512" height="200" viewBox="0 0 512 512" width="200" xmlns="http://www.w3.org/2000/svg"><g><path d="m500.597 44.478h-361.782c-4.442 0-8.48-2.58-10.347-6.61l-14.48-31.258c-1.867-4.03-5.905-6.61-10.347-6.61h-92.238c-6.298 0-11.403 5.105-11.403 11.403v489.194c0 6.298 5.105 11.403 11.403 11.403h30.04l470.557-427.709v-28.41c0-6.298-5.105-11.403-11.403-11.403z" fill="#9dc6fb"/><path d="m85.658 6.61 14.479 31.258c1.867 4.031 5.905 6.61 10.347 6.61h28.33c-4.442 0-8.48-2.58-10.347-6.61l-14.479-31.258c-1.867-4.03-5.905-6.61-10.347-6.61h-28.33c4.442 0 8.48 2.58 10.347 6.61z" fill="#80b4fb"/><path d="m500.597 44.478h-28.33c6.298 0 11.403 5.105 11.403 11.403v50.579l28.33-22.169v-28.41c0-6.298-5.105-11.403-11.403-11.403z" fill="#80b4fb"/><path d="m500.597 512h-459.154v-411.496c0-8.954 7.259-16.213 16.213-16.213h454.344v416.305c0 6.299-5.105 11.404-11.403 11.404z" fill="#f9f6f9"/><path d="m483.67 84.291v416.305c0 6.298-5.105 11.403-11.403 11.403h28.33c6.298 0 11.403-5.105 11.403-11.403v-416.305z" fill="#dddaec"/><g><path d="m80.826 47.361h-43.883c-4.268 0-7.726-3.459-7.726-7.726s3.459-7.726 7.726-7.726h43.882c4.268 0 7.726 3.459 7.726 7.726s-3.458 7.726-7.725 7.726z" fill="#f9f6f9"/></g><g><path d="m295.566 132.696h-37.689c-26.894 0-48.792 25.629-49.011 57.438-.179 25.995-2.792 47.821-11.199 64.624-1.326 2.651-.024 5.875 2.79 6.806 45.677 15.109 106.853 15.109 152.53 0 2.814-.931 4.116-4.155 2.79-6.806-8.408-16.803-11.02-38.629-11.199-64.624-.22-31.809-22.118-57.438-49.012-57.438z" fill="#365e7d"/><path d="m317.613 195.34c.185 29.339 2.981 53.804 12.103 72.372 8.076-1.654 15.876-3.704 23.271-6.15 2.814-.931 4.116-4.155 2.79-6.806-8.408-16.803-11.02-38.629-11.199-64.624-.219-31.809-22.117-57.438-49.011-57.438h-26.964c26.893.002 48.791 27.954 49.01 62.646z" fill="#2b4d66"/><path d="m330.715 351.803h-107.987c-2.995 0-5.422-2.428-5.422-5.422v-54.245c0-20.804 16.865-37.67 37.67-37.67h43.492c20.804 0 37.67 16.865 37.67 37.67v54.245c-.001 2.994-2.428 5.422-5.423 5.422z" fill="#df73c1"/><path d="m298.467 254.466h-22.339c20.804 0 37.67 16.865 37.67 37.67v59.667h16.916c2.995 0 5.422-2.428 5.422-5.422v-54.244c.001-20.806-16.864-37.671-37.669-37.671z" fill="#dd4fb1"/><path d="m276.722 285.604c-24.844 0-44.984-20.14-44.984-44.984v-35.487c0-5.245 4.252-9.497 9.497-9.497h68.004c6.885 0 12.467 5.581 12.467 12.467v32.517c-.001 24.845-20.14 44.984-44.984 44.984z" fill="#ffcbbe"/><path d="m300.107 195.637v44.984c0 21.12-14.558 38.832-34.184 43.67 3.461.853 7.075 1.314 10.799 1.314 24.844 0 44.984-20.14 44.984-44.984v-35.487c0-5.245-4.252-9.497-9.497-9.497z" fill="#eaac9d"/></g><g><path d="m321.175 460.006h-86.248c-4.477 0-8.106-3.629-8.106-8.106v-31.127c0-4.477 3.629-8.106 8.106-8.106h86.248c4.477 0 8.106 3.629 8.106 8.106v31.127c0 4.477-3.629 8.106-8.106 8.106z" fill="#b3e59f"/><path d="m321.175 412.668h-27.237c4.477 0 8.106 3.629 8.106 8.106v31.126c0 4.477-3.629 8.106-8.106 8.106h27.237c4.477 0 8.106-3.629 8.106-8.106v-31.127c0-4.476-3.629-8.105-8.106-8.105z" fill="#95d6a4"/></g><g><g><g><path d="m166.373 188.471h-82.463c-4.268 0-7.726-3.459-7.726-7.726 0-4.268 3.459-7.726 7.726-7.726h82.463c4.268 0 7.726 3.459 7.726 7.726s-3.458 7.726-7.726 7.726z" fill="#2b4d66"/></g><g><path d="m166.373 231.437h-82.463c-4.268 0-7.726-3.459-7.726-7.726s3.459-7.726 7.726-7.726h82.463c4.268 0 7.726 3.459 7.726 7.726s-3.458 7.726-7.726 7.726z" fill="#2b4d66"/></g><g><path d="m166.373 274.404h-82.463c-4.268 0-7.726-3.459-7.726-7.726s3.459-7.726 7.726-7.726h82.463c4.268 0 7.726 3.459 7.726 7.726s-3.458 7.726-7.726 7.726z" fill="#2b4d66"/></g><g><path d="m166.373 317.369h-82.463c-4.268 0-7.726-3.459-7.726-7.726s3.459-7.726 7.726-7.726h82.463c4.268 0 7.726 3.459 7.726 7.726s-3.458 7.726-7.726 7.726z" fill="#2b4d66"/></g><g><path d="m166.373 360.335h-82.463c-4.268 0-7.726-3.459-7.726-7.726s3.459-7.726 7.726-7.726h82.463c4.268 0 7.726 3.459 7.726 7.726s-3.458 7.726-7.726 7.726z" fill="#2b4d66"/></g><g><path d="m166.373 403.302h-82.463c-4.268 0-7.726-3.459-7.726-7.726s3.459-7.726 7.726-7.726h82.463c4.268 0 7.726 3.459 7.726 7.726s-3.458 7.726-7.726 7.726z" fill="#2b4d66"/></g></g><g><g><path d="m469.534 188.471h-82.464c-4.268 0-7.726-3.459-7.726-7.726 0-4.268 3.459-7.726 7.726-7.726h82.464c4.268 0 7.726 3.459 7.726 7.726s-3.459 7.726-7.726 7.726z" fill="#2b4d66"/></g><g><path d="m469.534 231.437h-82.464c-4.268 0-7.726-3.459-7.726-7.726s3.459-7.726 7.726-7.726h82.464c4.268 0 7.726 3.459 7.726 7.726s-3.459 7.726-7.726 7.726z" fill="#2b4d66"/></g><g><path d="m469.534 274.404h-82.464c-4.268 0-7.726-3.459-7.726-7.726s3.459-7.726 7.726-7.726h82.464c4.268 0 7.726 3.459 7.726 7.726s-3.459 7.726-7.726 7.726z" fill="#2b4d66"/></g><g><path d="m469.534 317.369h-82.464c-4.268 0-7.726-3.459-7.726-7.726s3.459-7.726 7.726-7.726h82.464c4.268 0 7.726 3.459 7.726 7.726s-3.459 7.726-7.726 7.726z" fill="#2b4d66"/></g><g><path d="m469.534 360.335h-82.464c-4.268 0-7.726-3.459-7.726-7.726s3.459-7.726 7.726-7.726h82.464c4.268 0 7.726 3.459 7.726 7.726s-3.459 7.726-7.726 7.726z" fill="#2b4d66"/></g><g><path d="m469.534 403.302h-82.464c-4.268 0-7.726-3.459-7.726-7.726s3.459-7.726 7.726-7.726h82.464c4.268 0 7.726 3.459 7.726 7.726s-3.459 7.726-7.726 7.726z" fill="#2b4d66"/></g></g></g></g></svg>